<svg xmlns="http://www.w3.org/2000/svg" id="구성_요소_1_20" width="155" height="42" viewBox="0 0 155 42">
    <defs>
        <style>
            .cls-2{fill:#fff}
        </style>
    </defs>
    <g id="그룹_203">
        <path id="사각형_54" fill="none" d="M0 0H155V42H0z"/>
        <g id="그룹_145" transform="translate(-1929.777 -4882.742)">
            <path id="패스_78" d="M952.74 526.782a1.466 1.466 0 0 0 .52-.856 1.2 1.2 0 0 0-.328-.973l-.513-.7a1.321 1.321 0 0 0-.853-.558 1.578 1.578 0 0 0-1.042.256 9.462 9.462 0 0 1-2.415 1.344 8.841 8.841 0 0 1-3.348.407c-2.967-.178-5.373-1.91-5.887-3.969-.032-.128-.121-.461.227-.446l14.017.022a1.629 1.629 0 0 0 1.12-.484 1.523 1.523 0 0 0 .33-1v-.321c0-5.885-4.109-10.142-9.664-10.142a10.5 10.5 0 0 0-6.841 2.2 10.278 10.278 0 0 0-3.563 8.138 9.7 9.7 0 0 0 2.7 6.993 10.9 10.9 0 0 0 7.562 2.843 13.628 13.628 0 0 0 4.734-.785 10.031 10.031 0 0 0 3.244-1.969zm-7.948-13.589c3.1-.081 5.536 2 5.672 4.472a.225.225 0 0 1-.224.244h-10.967c-.391 0-.37-.257-.361-.4a5.036 5.036 0 0 1 2.233-3.321 6.455 6.455 0 0 1 3.647-.995z" class="cls-2" transform="translate(1031.429 4386.693)"/>
            <path id="패스_79" d="M1203.591 490.062a2.422 2.422 0 1 0 2.422 2.422 2.422 2.422 0 0 0-2.422-2.422z" class="cls-2" transform="translate(851.993 4399.681)"/>
            <path id="패스_80" d="M1147.844 512.63a2.58 2.58 0 0 1-2.817-2.867v-18.277a1.281 1.281 0 0 0-1.424-1.424h-1.643a1.25 1.25 0 0 0-1.393 1.393v18.629a6.9 6.9 0 0 0 .767 3.294c1.148 2.16 3.419 2.931 6.2 2.931h.221a1.5 1.5 0 0 0 1.651-1.422v-1a1.083 1.083 0 0 0-.522-1.012 1.894 1.894 0 0 0-1.04-.245z" class="cls-2" transform="translate(892.771 4399.681)"/>
            <path id="패스_81" d="M1175.995 512.63a2.58 2.58 0 0 1-2.817-2.867v-18.277a1.281 1.281 0 0 0-1.424-1.424h-1.643a1.25 1.25 0 0 0-1.393 1.393v18.629a6.9 6.9 0 0 0 .767 3.294c1.148 2.16 3.419 2.931 6.2 2.931h.221a1.5 1.5 0 0 0 1.651-1.422v-1a1.083 1.083 0 0 0-.522-1.012 1.893 1.893 0 0 0-1.04-.245z" class="cls-2" transform="translate(873.829 4399.681)"/>
            <path id="패스_82" d="M1204.881 510.536h-1.79a1.229 1.229 0 0 0-1.335 1.335v16.846a1.256 1.256 0 0 0 1.335 1.335h1.79a1.25 1.25 0 0 0 1.335-1.335v-16.846a1.222 1.222 0 0 0-1.335-1.335z" class="cls-2" transform="translate(851.598 4385.904)"/>
            <path id="패스_83" d="M1239.859 512.61a7.964 7.964 0 0 0-5.78-2.1 8.049 8.049 0 0 0-5.835 2.269.215.215 0 0 1-.37-.15l-.016-.606a1.38 1.38 0 0 0-1.5-1.513h-1.219a1.338 1.338 0 0 0-1.514 1.514v16.516c-.014 1 .344 1.5 1.514 1.514h1.432c1.171.017 1.5-.508 1.514-1.514v-8.4a5.9 5.9 0 0 1 1.427-4.264 5.151 5.151 0 0 1 3.889-1.48 4.357 4.357 0 0 1 3.354 1.267 5.352 5.352 0 0 1 1.177 3.764v9.109a1.34 1.34 0 0 0 1.514 1.514h1.433c1.149.017 1.514-.619 1.514-1.514v-9.68a8.469 8.469 0 0 0-2.534-6.246z" class="cls-2" transform="translate(836.881 4385.925)"/>
            <path id="패스_84" d="M1089.87 510.505h-1.8a1.317 1.317 0 0 0-1.318 1.331l-.018.7a.215.215 0 0 1-.363.157 7.46 7.46 0 0 0-2.331-1.519 8.824 8.824 0 0 0-3.408-.642 10.119 10.119 0 0 0-4.977 1.213 8.659 8.659 0 0 0-3.425 3.407 11.3 11.3 0 0 0 0 10.258 8.624 8.624 0 0 0 3.425 3.425 10.113 10.113 0 0 0 4.977 1.213 9.224 9.224 0 0 0 3.586-.678 6.891 6.891 0 0 0 2.36-1.615.215.215 0 0 1 .37.149v.808a1.335 1.335 0 0 0 1.335 1.335h1.586a1.325 1.325 0 0 0 1.325-1.325V511.83a1.325 1.325 0 0 0-1.324-1.325zm-8.667 15.336a5.614 5.614 0 1 1 4.837-4.841 5.617 5.617 0 0 1-4.84 4.841z" class="cls-2" transform="translate(939.58 4385.925)"/>
            <path id="제외_1" fill="#fff" stroke="rgba(0,0,0,0)" stroke-miterlimit="10" d="M10.562 26.231A10.26 10.26 0 0 1 8.9 26.1a8.669 8.669 0 0 1-1.923-.544 6.919 6.919 0 0 1-2.36-1.615.211.211 0 0 0-.153-.067.214.214 0 0 0-.216.216v.625a1.818 1.818 0 0 1-.28 1.085 1.475 1.475 0 0 1-1.22.422H1.5a1.531 1.531 0 0 1-1.14-.393A1.491 1.491 0 0 1 0 24.712V1.514A1.517 1.517 0 0 1 .412.409 1.518 1.518 0 0 1 1.514 0h1.433a1.509 1.509 0 0 1 1.089.419 1.486 1.486 0 0 1 .4 1.092l.021 7.208a.209.209 0 0 0 .214.213.23.23 0 0 0 .149-.056 8.781 8.781 0 0 1 2.488-1.547 8.313 8.313 0 0 1 3.254-.616 10.166 10.166 0 0 1 4.977 1.213A8.829 8.829 0 0 1 17.5 9.39a9.026 9.026 0 0 1 1.485 1.962 9.381 9.381 0 0 1 .936 2.382 11.468 11.468 0 0 1 .312 2.721 10.348 10.348 0 0 1-1.249 5.12A9.035 9.035 0 0 1 17.5 23.55a8.747 8.747 0 0 1-1.958 1.467 10.157 10.157 0 0 1-4.98 1.214zm.038-15.385a5.613 5.613 0 1 0 3.969 1.644 5.558 5.558 0 0 0-3.969-1.644z" transform="translate(1988.396 4889.742)"/>
            <path id="패스_87" d="M856.489 510.55a1.522 1.522 0 0 1 1.439 1.044s3.88 11.816 4.225 12.989c.01.034.02.05.057.05s.046-.017.056-.051c.427-1.515 3.9-12.983 3.9-12.983a1.707 1.707 0 0 1 .442-.707 1.4 1.4 0 0 1 .892-.344h1.95a1.148 1.148 0 0 1 .905.432 1.242 1.242 0 0 1 .13 1.18l-5.279 16.412a2.39 2.39 0 0 1-.645.989 2.324 2.324 0 0 1-1.427.5h-1.663a2.2 2.2 0 0 1-1.39-.515 2.555 2.555 0 0 1-.64-1.021s-3.151-9.322-3.709-11.142a.049.049 0 0 0-.091 0c-.558 1.82-3.708 11.142-3.708 11.142a2.558 2.558 0 0 1-.641 1.021 2.2 2.2 0 0 1-1.39.515h-1.663a2.322 2.322 0 0 1-1.427-.5 2.388 2.388 0 0 1-.646-.989l-5.279-16.412a1.242 1.242 0 0 1 .13-1.18 1.149 1.149 0 0 1 .905-.432h1.95a1.4 1.4 0 0 1 .892.344 1.7 1.7 0 0 1 .442.707s3.475 11.468 3.9 12.983c.01.033.022.051.056.051s.047-.016.057-.05c.345-1.173 4.225-12.989 4.225-12.989a1.521 1.521 0 0 1 1.439-1.044z" class="cls-2" transform="translate(1094.473 4385.895)"/>
        </g>
    </g>
</svg>
